<?xml version="1.0" encoding="utf-8"?>
<!-- Generator: Adobe Illustrator 19.1.0, SVG Export Plug-In . SVG Version: 6.00 Build 0)  -->
<svg version="1.1" id="Слой_1" xmlns="http://www.w3.org/2000/svg" xmlns:xlink="http://www.w3.org/1999/xlink" x="0px" y="0px"
	 viewBox="0 0 85 85" style="enable-background:new 0 0 85 85;" xml:space="preserve">
<style type="text/css">
	.st0{fill:#043846;}
	.background{fill:#fff}
</style>
<g>
	<g>
		<circle class="background" cx="42.5" cy="42.5" r="42.5"/>
	</g>
	<g>
		<path class="st0" d="M18.5,58.8V44.2h-3v-4h3V26.2h11.2c4,0,7.3,1.3,9.8,3.8s3.9,5.8,3.9,9.8v5.4c0,4-1.3,7.3-3.9,9.8
			c-2.6,2.5-5.9,3.8-9.8,3.8H18.5z M30.5,44.2H25v9.6h4.3c2.3,0,4.2-0.8,5.5-2.4c1.3-1.6,2-3.6,2-6.2v-5.4c0-2.5-0.7-4.6-2-6.1
			c-1.3-1.6-3.2-2.4-5.5-2.4H25v8.9h5.5V44.2z"/>
		<path class="st0" d="M55,53.7h14.5v5h-21V26.2H55V53.7z"/>
	</g>
</g>
</svg>
